<svg width="238.7" height="93.6" viewBox="0 0 238.7 93.6" xmlns="http://www.w3.org/2000/svg"><g id="svgGroup" stroke-linecap="round" fill-rule="nonzero" font-size="9pt" stroke="#000" stroke-width="0.25mm" fill="#000" style="stroke:#000;stroke-width:0.25mm;fill:#000"><path d="M 48 56.2 L 48.1 59.3 A 7.322 7.322 0 0 1 48.044 60.252 Q 47.8 62.1 46.5 62.1 Q 44.1 62.1 41.9 61.45 Q 40.419 61.013 39.935 60.348 A 1.162 1.162 0 0 1 39.7 59.65 A 14.516 14.516 0 0 1 39.72 59.022 Q 39.788 57.555 40.102 53.599 A 813.384 813.384 0 0 1 40.25 51.75 Q 40.671 46.582 40.77 43.378 A 58.215 58.215 0 0 0 40.8 41.6 L 40.8 35.7 Q 40.8 31.724 41.486 30.355 A 1.744 1.744 0 0 1 41.8 29.9 A 13.312 13.312 0 0 1 42.397 29.344 Q 43.096 28.727 44.189 27.881 A 79.774 79.774 0 0 1 45.35 27 A 23.083 23.083 0 0 1 46.399 26.26 Q 47.953 25.232 48.836 25.115 A 1.642 1.642 0 0 1 49.05 25.1 Q 49.848 25.1 50.237 25.293 A 0.721 0.721 0 0 1 50.5 25.5 A 1.084 1.084 0 0 1 50.649 25.79 Q 50.8 26.218 50.8 27 Q 50.8 32.3 48.8 37 A 269.392 269.392 0 0 0 48.587 39.556 Q 48.3 43.233 48.3 44.9 Q 48.678 44.334 52.084 38.78 A 3548.242 3548.242 0 0 0 52.5 38.1 A 118.491 118.491 0 0 1 54.328 35.206 Q 56.963 31.175 58.95 29 Q 61.6 26.1 63.7 26.1 Q 65.8 26.1 67.45 27.5 A 4.746 4.746 0 0 1 68.621 28.94 A 4.424 4.424 0 0 1 69.1 31 A 56.837 56.837 0 0 1 69.041 33.46 Q 68.918 36.263 68.543 40.17 A 254.718 254.718 0 0 1 68.15 43.95 A 479.444 479.444 0 0 0 67.827 46.935 Q 67.237 52.567 67.202 54.519 A 12.954 12.954 0 0 0 67.2 54.75 A 13.21 13.21 0 0 0 67.215 55.398 Q 67.289 56.908 67.743 56.995 A 0.302 0.302 0 0 0 67.8 57 Q 69.5 56.9 72.5 52.75 A 46.048 46.048 0 0 0 74.929 48.99 Q 76.699 45.96 78.45 42.1 A 142.796 142.796 0 0 1 78.515 41.958 A 9.831 9.831 0 0 1 77.3 37.2 A 14.891 14.891 0 0 1 77.927 32.778 A 11.874 11.874 0 0 1 81.1 27.65 Q 84.9 24 89.2 24 A 8.074 8.074 0 0 1 90.897 24.168 Q 92.41 24.493 93.4 25.45 Q 94.428 26.444 94.752 27.461 A 3.083 3.083 0 0 1 94.9 28.4 Q 94.9 30.367 94.365 31.196 A 1.208 1.208 0 0 1 93.3 31.8 Q 92.1 31.8 92.1 31 L 92.3 29.5 A 2.248 2.248 0 0 0 92.184 28.745 Q 91.812 27.7 90.25 27.7 A 3.489 3.489 0 0 0 88.423 28.244 Q 87.847 28.593 87.284 29.166 A 9.973 9.973 0 0 0 86.3 30.35 A 17.181 17.181 0 0 0 85.469 31.616 Q 84.4 33.425 84.4 34.7 A 23.662 23.662 0 0 0 84.42 35.694 Q 84.463 36.713 84.6 37.4 A 14.65 14.65 0 0 0 84.756 38.094 Q 84.893 38.641 85.05 39.05 Q 85.218 39.487 85.544 40.037 A 12.701 12.701 0 0 0 85.9 40.6 Q 86.478 41.467 86.777 41.87 A 8.872 8.872 0 0 0 86.8 41.9 L 87.9 43.3 A 32.261 32.261 0 0 0 88.187 43.704 Q 88.666 44.366 88.9 44.6 Q 92.475 41.644 96.996 38.215 A 373.521 373.521 0 0 1 100.786 35.38 A 439.231 439.231 0 0 1 101.2 31.1 A 13.232 13.232 0 0 1 99.238 30.562 Q 96.135 29.422 95.9 27 A 1.711 1.711 0 0 1 96.044 26.272 Q 96.383 25.545 97.518 25.424 A 4.577 4.577 0 0 1 98 25.4 A 9.355 9.355 0 0 1 99.946 25.594 A 7.29 7.29 0 0 1 101.7 26.2 Q 102.6 19 103.8 11.6 A 6.09 6.09 0 0 1 104.683 9.303 A 8.479 8.479 0 0 1 105.7 8 Q 106.653 6.988 107.571 6.578 A 3 3 0 0 1 108.8 6.3 Q 110.1 6.3 110.1 10.4 Q 110.1 12.3 108.7 27.9 Q 111.021 27.471 113.747 26.302 A 35.823 35.823 0 0 0 114.65 25.9 Q 117.74 24.474 118.434 24.404 A 0.657 0.657 0 0 1 118.5 24.4 A 4.405 4.405 0 0 1 119.112 24.439 Q 119.808 24.537 120.097 24.885 A 0.932 0.932 0 0 1 120.3 25.5 A 0.52 0.52 0 0 1 120.303 25.552 Q 120.303 26.52 116.787 28.164 A 35.581 35.581 0 0 1 116.6 28.25 A 36.978 36.978 0 0 1 109.491 30.662 A 41.609 41.609 0 0 1 108.4 30.9 Q 107.481 42.078 107.266 49.095 A 128.281 128.281 0 0 0 107.2 53 A 20.351 20.351 0 0 0 107.236 54.257 Q 107.35 56.09 107.831 56.698 A 0.708 0.708 0 0 0 108.4 57 Q 110.067 56.908 112.764 53.384 A 33.95 33.95 0 0 0 113.2 52.8 A 42.889 42.889 0 0 0 115.443 49.381 Q 116.608 47.42 117.765 45.086 A 87.905 87.905 0 0 0 118.301 43.982 A 23.455 23.455 0 0 1 122.75 32.3 A 15.861 15.861 0 0 1 126.917 28.286 Q 130.3 26.104 134.683 26.1 A 17.522 17.522 0 0 1 134.7 26.1 A 6.045 6.045 0 0 1 137.104 26.643 Q 138.984 27.457 141.098 29.492 A 26.399 26.399 0 0 1 141.9 30.3 A 7.006 7.006 0 0 1 142.485 29.607 Q 143.156 28.901 144.237 28.047 A 30.318 30.318 0 0 1 144.75 27.65 Q 146.573 26.272 147.921 26.119 A 2.921 2.921 0 0 1 148.25 26.1 Q 149.615 26.1 149.695 29.465 A 18.206 18.206 0 0 1 149.7 29.9 A 6.385 6.385 0 0 1 149.674 30.429 Q 149.58 31.535 149.15 33.8 Q 148.706 36.145 148.163 37.443 A 6.304 6.304 0 0 1 147.9 38 Q 147.131 39.965 147.019 50.467 A 360.34 360.34 0 0 0 147 54.3 A 19.016 19.016 0 0 0 147.015 55.078 Q 147.094 57 147.6 57 Q 149.3 56.9 152.3 52.75 A 46.048 46.048 0 0 0 154.729 48.99 Q 156.499 45.96 158.25 42.1 A 142.796 142.796 0 0 1 158.952 40.577 Q 159.832 38.696 160.461 37.526 A 19.113 19.113 0 0 1 160.701 37.089 A 8.629 8.629 0 0 1 159.736 36.535 A 7.077 7.077 0 0 1 157.7 34.4 A 7.816 7.816 0 0 1 156.505 30.398 A 9.418 9.418 0 0 1 156.5 30.1 A 9.742 9.742 0 0 1 156.735 27.916 A 7.654 7.654 0 0 1 157.5 25.9 A 4.101 4.101 0 0 1 158.208 24.951 A 2.945 2.945 0 0 1 160.35 24.1 Q 162.2 24.1 163.75 26.05 Q 165.3 28 165.3 30.4 A 8.808 8.808 0 0 1 164.639 33.7 A 11.405 11.405 0 0 1 163.9 35.2 A 1.207 1.207 0 0 0 164.232 35.37 Q 164.608 35.5 165.2 35.5 L 170.7 34.9 Q 171.5 34.9 172.1 35.8 A 3.583 3.583 0 0 1 172.593 36.874 A 3.219 3.219 0 0 1 172.7 37.7 A 9.179 9.179 0 0 1 172.677 38.244 Q 172.578 39.788 172.05 44.5 A 148.079 148.079 0 0 0 171.707 47.886 Q 171.443 50.86 171.406 52.98 A 38.318 38.318 0 0 0 171.4 53.65 A 29.268 29.268 0 0 0 171.415 54.615 Q 171.479 56.562 171.829 56.92 A 0.237 0.237 0 0 0 172 57 Q 173.7 56.9 176.7 52.75 A 46.048 46.048 0 0 0 179.129 48.99 Q 180.235 47.096 181.334 44.878 A 90.632 90.632 0 0 0 182.096 43.3 A 139.022 139.022 0 0 1 182.244 40.233 Q 182.781 30.769 184.5 17.5 Q 186.6 1.6 194.3 1.6 A 2.484 2.484 0 0 1 196.371 2.608 Q 196.675 3.002 196.9 3.55 A 11.152 11.152 0 0 1 197.513 5.521 A 8.765 8.765 0 0 1 197.7 7.3 Q 197.7 18.008 192.341 30.819 A 102.393 102.393 0 0 1 189.8 36.4 A 534.241 534.241 0 0 0 189.617 42.323 Q 189.559 44.665 189.53 46.796 A 295.597 295.597 0 0 0 189.5 50.85 A 53.803 53.803 0 0 0 189.527 52.622 Q 189.672 57 190.6 57 Q 192.3 56.9 195.3 52.75 A 46.048 46.048 0 0 0 197.729 48.99 A 68.43 68.43 0 0 0 199.929 44.888 L 200.1 41.7 Q 200.1 32.961 200.767 30.693 A 1.687 1.687 0 0 1 201.1 30 Q 202.1 29 204.65 27.05 Q 207.2 25.1 208.35 25.1 Q 209.148 25.1 209.537 25.293 A 0.721 0.721 0 0 1 209.8 25.5 A 1.038 1.038 0 0 1 209.942 25.779 Q 210.099 26.226 210.1 27.091 A 9.049 9.049 0 0 1 210.1 27.1 A 20.915 20.915 0 0 1 209.031 33.606 A 25.296 25.296 0 0 1 208.2 35.8 A 152.62 152.62 0 0 0 207.409 41.228 Q 206.7 46.844 206.7 50.9 A 38.919 38.919 0 0 0 206.734 52.6 Q 206.898 56.315 207.841 56.744 A 0.62 0.62 0 0 0 208.1 56.8 A 3.527 3.527 0 0 0 209.715 56.364 Q 210.977 55.713 212.411 54.091 A 23.111 23.111 0 0 0 213.65 52.55 A 32.997 32.997 0 0 0 215.734 49.325 Q 217.883 45.577 220.1 40 Q 220.2 37.8 220.3 35.35 Q 220.396 32.992 220.493 31.838 A 25.178 25.178 0 0 1 220.5 31.75 Q 220.6 30.6 220.65 30.1 A 0.639 0.639 0 0 1 220.771 29.838 Q 221.147 29.28 222.691 27.951 A 57.586 57.586 0 0 1 223.4 27.35 Q 226.1 25.1 227.55 25.1 Q 228.915 25.1 228.995 28.465 A 18.206 18.206 0 0 1 229 28.9 A 6.385 6.385 0 0 1 228.974 29.429 Q 228.88 30.535 228.45 32.8 Q 228.006 35.145 227.463 36.443 A 6.304 6.304 0 0 1 227.2 37 A 297.759 297.759 0 0 0 226.671 42.072 Q 226.431 44.582 226.268 46.817 A 159.597 159.597 0 0 0 226.1 49.4 Q 234.972 38.175 236.345 36.538 A 7.244 7.244 0 0 1 236.55 36.3 A 3.892 3.892 0 0 1 236.863 35.996 Q 237.201 35.706 237.494 35.628 A 0.805 0.805 0 0 1 237.7 35.6 Q 238.494 35.6 238.658 36.23 A 1.473 1.473 0 0 1 238.7 36.6 Q 238.7 37.2 238.3 37.9 A 98.166 98.166 0 0 1 236.387 40.593 Q 233.659 44.318 228.844 50.433 A 900.719 900.719 0 0 1 225.7 54.4 A 13376.143 13376.143 0 0 0 225.441 59.561 Q 225.144 65.492 224.985 68.812 A 1234.775 1234.775 0 0 0 224.9 70.6 Q 224.4 83.3 221.35 88.45 A 9.923 9.923 0 0 1 215.205 93.019 Q 213.121 93.6 210.5 93.6 A 10.882 10.882 0 0 1 204.289 91.645 A 13.2 13.2 0 0 1 204.15 91.55 A 6.357 6.357 0 0 1 201.766 88.298 Q 201.2 86.662 201.2 84.45 A 14.788 14.788 0 0 1 202.335 78.893 Q 203.112 76.967 204.419 75.007 A 27.558 27.558 0 0 1 205.05 74.1 A 74.541 74.541 0 0 1 207.372 71.094 Q 210.112 67.705 214.464 62.869 A 463.619 463.619 0 0 1 219.1 57.8 L 219.7 46.9 A 78.603 78.603 0 0 1 217.585 51.231 Q 215.269 55.603 213 58.25 Q 210.291 61.411 207.11 61.977 A 8.034 8.034 0 0 1 205.7 62.1 A 12.325 12.325 0 0 1 203.985 61.99 Q 202.063 61.719 201.113 60.778 A 2.952 2.952 0 0 1 200.6 60.1 Q 199.5 58.1 199.5 52.9 L 199.588 51.264 A 60.793 60.793 0 0 1 196.986 55.599 Q 192.659 62.1 189.3 62.1 A 15.379 15.379 0 0 1 186.811 61.906 A 12.657 12.657 0 0 1 185.25 61.55 Q 183.4 61 183 60.5 Q 182.143 59.471 182.021 51.054 A 207.555 207.555 0 0 1 182.004 49.352 A 109 109 0 0 1 181.126 51.01 Q 175.088 62.1 170.7 62.1 A 15.187 15.187 0 0 1 168.5 61.952 Q 167.382 61.787 166.479 61.442 A 6.228 6.228 0 0 1 164.8 60.5 A 0.458 0.458 0 0 1 164.747 60.434 Q 164.194 59.624 164.114 53.88 A 150.12 150.12 0 0 1 164.1 51.8 Q 164.1 45.136 165.28 40.068 A 33.293 33.293 0 0 1 165.8 38.1 A 14.154 14.154 0 0 1 162.815 37.808 A 8.629 8.629 0 0 1 162.377 37.708 A 8.302 8.302 0 0 1 162.319 38.006 Q 161.8 40.601 159.795 44.886 A 73.486 73.486 0 0 1 159.6 45.3 Q 151.7 62.1 146.3 62.1 A 15.187 15.187 0 0 1 144.1 61.952 Q 142.982 61.787 142.079 61.442 A 6.228 6.228 0 0 1 140.4 60.5 A 1.536 1.536 0 0 1 140.086 59.996 Q 139.744 59.17 139.705 57.411 A 21.083 21.083 0 0 1 139.7 56.95 Q 139.7 54.768 139.817 51.443 A 335.754 335.754 0 0 1 139.9 49.3 A 66.239 66.239 0 0 1 138.32 52.95 Q 136.713 56.358 135.125 58.47 A 17.049 17.049 0 0 1 134.75 58.95 A 8.55 8.55 0 0 1 132.041 61.211 A 8.223 8.223 0 0 1 128.2 62.1 A 8.512 8.512 0 0 1 128.138 62.1 Q 125.229 62.079 122.851 60.066 A 12.311 12.311 0 0 1 121.2 58.35 Q 119.17 55.812 118.514 51.306 A 32.048 32.048 0 0 1 118.329 49.686 A 108.041 108.041 0 0 1 117.624 51.01 Q 111.578 62.1 107.15 62.1 A 35.86 35.86 0 0 1 105.265 62.055 Q 101.522 61.856 100.75 60.8 A 2.689 2.689 0 0 1 100.392 59.985 Q 99.81 57.994 99.8 52.391 A 110.467 110.467 0 0 1 99.8 52.2 Q 99.8 48.322 100.195 42.609 A 301.239 301.239 0 0 1 100.496 38.678 A 115.39 115.39 0 0 0 90.2 46.4 Q 92.4 49.6 92.4 53.4 A 8.508 8.508 0 0 1 89.766 59.645 A 11.023 11.023 0 0 1 89.5 59.9 A 9.954 9.954 0 0 1 83.862 62.489 A 13.524 13.524 0 0 1 82.1 62.6 A 6.801 6.801 0 0 1 80.347 62.394 Q 77.6 61.66 77.6 58.3 Q 77.6 55.564 82.741 50.258 A 66.161 66.161 0 0 1 84.2 48.8 Q 83.7 48.2 82.4 46.85 Q 81.329 45.738 80.699 44.998 A 16.562 16.562 0 0 1 80.45 44.7 A 22.728 22.728 0 0 1 80.218 44.408 A 55.986 55.986 0 0 1 79.995 44.886 A 73.486 73.486 0 0 1 79.8 45.3 Q 71.9 62.1 66.5 62.1 A 15.187 15.187 0 0 1 64.3 61.952 Q 63.182 61.787 62.279 61.442 A 6.228 6.228 0 0 1 60.6 60.5 A 1.503 1.503 0 0 1 60.294 60.01 Q 59.9 59.063 59.9 56.85 Q 59.9 54.134 60.367 48.279 A 342.365 342.365 0 0 1 60.45 47.25 Q 61 40.608 61 37.307 A 66.106 66.106 0 0 0 61 37.3 Q 61 34 59.85 34 A 1.141 1.141 0 0 0 59.258 34.262 Q 57.943 35.196 54.796 39.476 A 130.48 130.48 0 0 0 53.8 40.85 A 130.323 130.323 0 0 0 52.124 43.245 Q 48.871 48.016 48.605 49.574 A 2.025 2.025 0 0 0 48.6 49.6 A 42.41 42.41 0 0 0 48.092 53.717 A 34.593 34.593 0 0 0 48 56.2 Z M 128.841 33.385 A 21.738 21.738 0 0 0 128.15 34.25 A 15.482 15.482 0 0 0 125.019 43.134 A 19.329 19.329 0 0 0 125 44 Q 125 49.6 126.65 53.2 A 9.793 9.793 0 0 0 127.526 54.754 Q 128.965 56.8 131 56.8 Q 134.112 56.8 139.98 42.129 A 187.756 187.756 0 0 0 140.7 40.3 Q 140.792 39.563 140.927 37.852 A 185.821 185.821 0 0 0 140.95 37.55 Q 141.1 35.6 141.2 34.6 A 6.579 6.579 0 0 0 140.246 33.325 Q 139.386 32.411 138.05 31.55 Q 135.8 30.1 134.1 30.1 Q 131.609 30.1 128.841 33.385 Z M 218.3 72.3 L 218.8 62.5 A 87.357 87.357 0 0 0 214.083 67.997 Q 209.769 73.508 208.24 77.822 A 13.181 13.181 0 0 0 207.4 82.2 A 15.845 15.845 0 0 0 207.565 84.558 Q 207.846 86.417 208.6 87.8 Q 209.8 90 211.9 90 Q 214.403 90 215.743 87.86 A 7.429 7.429 0 0 0 216.4 86.5 Q 217.565 83.364 218.168 74.447 A 187.442 187.442 0 0 0 218.3 72.3 Z M 194.525 5.021 A 0.371 0.371 0 0 0 194.4 5 Q 191.4 5 190 29.9 A 122.158 122.158 0 0 0 192.514 22.645 Q 195.2 13.95 195.2 8.2 Q 195.2 5.261 194.525 5.021 Z M 85.7 50.7 A 29.176 29.176 0 0 0 84.142 52.376 Q 81.73 55.202 81.701 57.104 A 3.029 3.029 0 0 0 81.7 57.15 A 3.451 3.451 0 0 0 81.826 58.127 Q 82.262 59.6 84.2 59.6 A 3.083 3.083 0 0 0 86.508 58.615 A 4.018 4.018 0 0 0 86.7 58.4 A 4.501 4.501 0 0 0 87.597 55.674 Q 87.597 53.491 85.709 50.713 A 18.82 18.82 0 0 0 85.7 50.7 Z M 34.4 11.4 L 34.8 30 A 72.653 72.653 0 0 1 33.923 41.843 Q 30.308 63.6 11.8 63.6 A 16.603 16.603 0 0 1 6.045 62.619 A 15.452 15.452 0 0 1 3.65 61.5 Q 0 59.4 0 55 Q 0 52.3 1.4 50.55 A 4.482 4.482 0 0 1 4.648 48.821 A 5.919 5.919 0 0 1 5.15 48.8 A 7.582 7.582 0 0 1 5.919 48.836 Q 6.687 48.915 7.082 49.168 A 0.83 0.83 0 0 1 7.5 49.9 Q 7.5 50.4 6.9 51.85 A 7.795 7.795 0 0 0 6.348 53.935 A 7.05 7.05 0 0 0 6.3 54.75 Q 6.3 56.146 7.876 57.728 A 10.449 10.449 0 0 0 8 57.85 A 5.332 5.332 0 0 0 10.046 59.062 Q 11.347 59.5 13.1 59.5 A 13.893 13.893 0 0 0 16.067 59.198 A 10.585 10.585 0 0 0 19 58.1 A 9.999 9.999 0 0 0 22.559 54.697 A 12.297 12.297 0 0 0 23 53.95 Q 24.5 51.2 25.45 48.3 A 23.611 23.611 0 0 0 26.085 45.914 Q 26.361 44.629 26.562 43.138 A 50.31 50.31 0 0 0 26.8 41 Q 27.36 34.932 27.398 27.338 A 222.104 222.104 0 0 0 27.4 26.25 Q 27.4 18 27.6 12.6 Q 14.8 14.8 14.8 23.6 A 9.688 9.688 0 0 1 14.698 25.055 Q 14.578 25.843 14.318 26.484 A 4.509 4.509 0 0 1 13.75 27.5 A 3.815 3.815 0 0 1 12.886 28.353 A 3.048 3.048 0 0 1 11.1 28.9 A 3.782 3.782 0 0 1 9.859 28.713 Q 8.171 28.128 8.103 25.707 A 7.358 7.358 0 0 1 8.1 25.5 A 12.045 12.045 0 0 1 12.196 16.356 A 17.291 17.291 0 0 1 13.45 15.3 A 27.44 27.44 0 0 1 18.813 12.14 Q 21.485 10.926 24.714 10.016 A 55.972 55.972 0 0 1 28 9.2 A 12.936 12.936 0 0 1 29.135 5.618 A 10.737 10.737 0 0 1 31.4 2.55 A 14.49 14.49 0 0 1 32.799 1.375 Q 34.463 0.162 35.917 0.019 A 3.925 3.925 0 0 1 36.3 0 A 6.295 6.295 0 0 1 37.86 0.183 A 4.523 4.523 0 0 1 39.85 1.25 A 4.141 4.141 0 0 1 41.151 3.827 A 5.843 5.843 0 0 1 41.2 4.6 Q 41.2 8.922 35.909 10.91 A 18.275 18.275 0 0 1 34.4 11.4 Z M 37.1 3.4 A 1.903 1.903 0 0 0 35.455 4.356 Q 34.899 5.198 34.639 6.779 A 15.298 15.298 0 0 0 34.5 7.9 A 12.545 12.545 0 0 0 35.814 7.424 Q 37.117 6.861 37.677 6.152 A 1.821 1.821 0 0 0 38.1 5 Q 38.1 3.4 37.1 3.4 Z"/></g></svg>